<svg xmlns="http://www.w3.org/2000/svg" width="646.659" height="679.816" viewBox="0 0 646.659 679.816">
  <path id="bone-solid" d="M161.512,284.985c7.251-17.128,21.647-32.786,40.247-32.786H403.518c18.6,0,33,15.657,40.247,32.786A84.082,84.082,0,1,0,561.142,178.221a11.223,11.223,0,0,1,0-20.176A84.075,84.075,0,1,0,443.765,51.281c-7.251,17.129-21.647,32.786-40.247,32.786H201.759c-18.6,0-33-15.657-40.247-32.786A84.082,84.082,0,1,0,44.135,158.045a11.223,11.223,0,0,1,0,20.176A84.075,84.075,0,1,0,161.512,284.985Z" transform="translate(257.594) rotate(50)" fill="rgba(145,183,66,0.25)"/>
</svg>
