<svg xmlns="http://www.w3.org/2000/svg" width="860.474" height="910.921" viewBox="0 0 860.474 910.921">
  <g id="Sejr___Davidsens__2_-removebg-preview-_1_" transform="matrix(0.438, 0.899, -0.899, 0.438, 488.139, -106.224)">
    <path id="Path_10" data-name="Path 10" d="M127.986-104.3C67.862-48.424,65.032,85.264,122.327,146.8,212.159,243,320.382,74.653,255.307-59.034,225.6-119.865,166.889-140.378,127.986-104.3Z" transform="translate(323.823)" fill="rgba(145,183,66,0.25)"/>
    <path id="Path_11" data-name="Path 11" d="M67.491-88.78C26.465-46.339,38.49,50.566,92.955,112.1c35.367,39.611,60.124,53.758,96.906,53.758,68.612,0,94.076-69.319,60.124-162.688C225.935-64.023,170.762-110,114.883-110,94.37-110,83.052-105.049,67.491-88.78Z" transform="translate(92.894 73.601)" fill="rgba(145,183,66,0.25)"/>
    <path id="Path_12" data-name="Path 12" d="M178.755-85.375c-71.441,48.1-84.174,183.2-19.806,217.154C195.024,151.584,251.611,119.754,277.783,66c16.269-33.952,19.805-101.857,7.073-127.321C263.636-103.059,219.074-112.961,178.755-85.375Z" transform="translate(543.258 128.906)" fill="rgba(145,183,66,0.25)"/>
    <path id="Path_13" data-name="Path 13" d="M254.822-68.541C164.99-47.321,97.793,26.95,69.5,135.88,39.083,253.3,85.768,365.059,171.356,379.205c49.514,7.781,74.978-8.488,99.028-61.539,22.635-50.221,60.831-87,97.613-94.076,22.635-4.244,26.879-2.829,99.735,35.367,48.1,26.172,129.443-14.854,140.053-70.734,10.61-56.587-81.344-183.2-164.81-227.056C379.314-72.785,314.946-82.688,254.822-68.541Z" transform="translate(196.987 287.492)" fill="rgba(145,183,66,0.25)"/>
    <path id="Path_14" data-name="Path 14" d="M74.089-60.229C25.283-39.009,13.258,17.578,46.5,72.751c46.684,80.637,158.444,92.662,191.689,21.22,24.05-50.221-6.366-115.3-67.9-146.42C128.554-72.961,107.334-75.083,74.089-60.229Z" transform="translate(0 317.376)" fill="rgba(145,183,66,0.25)"/>
  </g>
</svg>
