<svg xmlns="http://www.w3.org/2000/svg" width="61.132" height="57.923" viewBox="0 0 61.132 57.923">
  <path id="address-book-solid" d="M40.151,0C35.655,0,32,3.247,32,7.24V50.683c0,3.994,3.655,7.24,8.151,7.24H76.83c4.5,0,8.151-3.247,8.151-7.24V7.24C84.981,3.247,81.326,0,76.83,0ZM54.415,32.582h8.151c5.629,0,10.189,4.05,10.189,9.051a1.94,1.94,0,0,1-2.038,1.81H46.264a1.94,1.94,0,0,1-2.038-1.81C44.226,36.632,48.786,32.582,54.415,32.582ZM50.34,21.721c0-4,3.649-7.24,8.151-7.24s8.151,3.242,8.151,7.24-3.649,7.24-8.151,7.24S50.34,25.72,50.34,21.721ZM93.132,9.051a2.052,2.052,0,0,0-4.075,0v7.24a2.052,2.052,0,0,0,4.075,0ZM91.094,21.721a1.94,1.94,0,0,0-2.038,1.81v7.24a2.052,2.052,0,0,0,4.075,0v-7.24A1.94,1.94,0,0,0,91.094,21.721Zm2.038,16.291a2.052,2.052,0,0,0-4.075,0v7.24a2.052,2.052,0,0,0,4.075,0Z" transform="translate(-32)" fill="#110106"/>
</svg>
