<svg xmlns="http://www.w3.org/2000/svg" width="101" height="88.375" viewBox="0 0 101 88.375">
  <path id="shower-solid" d="M12.625,51.707A7.086,7.086,0,0,1,24.717,46.7l3.2,3.2a22.12,22.12,0,0,0,2.15,24.264l-.276.256A4.729,4.729,0,0,0,36.474,81.1L68.057,49.557a4.729,4.729,0,0,0-6.687-6.687l-.256.256a22.123,22.123,0,0,0-24.264-2.15l-3.215-3.2A19.7,19.7,0,0,0,0,51.707v62.356a6.313,6.313,0,0,0,12.625,0ZM50.5,95.125a6.313,6.313,0,1,0-6.312-6.313A6.313,6.313,0,0,0,50.5,95.125ZM63.125,107.75a6.313,6.313,0,1,0-6.312,6.313A6.312,6.312,0,0,0,63.125,107.75Zm0-25.25a6.313,6.313,0,1,0-6.312-6.312A6.313,6.313,0,0,0,63.125,82.5ZM75.75,95.125a6.313,6.313,0,1,0-6.312,6.312A6.313,6.313,0,0,0,75.75,95.125Zm0-25.25a6.313,6.313,0,1,0-6.312-6.312A6.312,6.312,0,0,0,75.75,69.875ZM88.375,82.5a6.313,6.313,0,1,0-6.312,6.313A6.313,6.313,0,0,0,88.375,82.5Zm6.313-6.312a6.312,6.312,0,1,0-6.312-6.312A6.312,6.312,0,0,0,94.688,76.188Z" transform="translate(0 -32)"/>
</svg>
