<svg xmlns="http://www.w3.org/2000/svg" width="27.057" height="30.922" viewBox="0 0 27.057 30.922">
  <path id="user-doctor-solid" d="M13.529,15.461A7.731,7.731,0,1,0,5.8,7.731,7.731,7.731,0,0,0,13.529,15.461ZM7.731,18.8A10.771,10.771,0,0,0,0,29.129a1.794,1.794,0,0,0,1.794,1.794h23.47a1.794,1.794,0,0,0,1.794-1.794,10.771,10.771,0,0,0-7.731-10.334v3.068a3.869,3.869,0,0,1,2.9,3.745v2.416a.969.969,0,0,1-.966.966h-.966a.966.966,0,1,1,0-1.933V25.608a1.933,1.933,0,1,0-3.865,0v1.449a.966.966,0,0,1,0,1.933h-.966a.969.969,0,0,1-.966-.966V25.608a3.869,3.869,0,0,1,2.9-3.745V18.415q-.544-.054-1.105-.054h-5.52q-.562,0-1.105.054v3.95a3.382,3.382,0,1,1-1.933,0V18.795ZM8.7,27.057a1.449,1.449,0,1,0-1.449-1.449A1.449,1.449,0,0,0,8.7,27.057Z"/>
</svg>
