<svg xmlns="http://www.w3.org/2000/svg" width="89" height="73.881" viewBox="0 0 89 73.881">
  <path id="dog-solid" d="M47.866,22.871,51.435,2.857A3.6,3.6,0,0,1,55.051,0a3.752,3.752,0,0,1,2.936,1.371L60.6,4.618h8.051a7.691,7.691,0,0,1,5.238,2.035l2.781,2.583h8.653A3.584,3.584,0,0,1,89.03,12.7v3.463c0,6.378-5.532,11.544-12.362,11.544H65.96l-.788,4.4ZM64.307,36.955V69.264a4.784,4.784,0,0,1-4.945,4.618H54.417a4.784,4.784,0,0,1-4.945-4.618V52.64a28.963,28.963,0,0,1-24.724,0V69.264A4.784,4.784,0,0,1,19.8,73.881H14.86a4.784,4.784,0,0,1-4.945-4.618V36.046a14.226,14.226,0,0,1-9.148-9.6L.18,24.213a4.6,4.6,0,0,1,3.6-5.6,4.967,4.967,0,0,1,6,3.362l.6,2.237a4.878,4.878,0,0,0,4.79,3.492h31.8Zm7.417-25.411a2.478,2.478,0,0,0-4.945,0,2.478,2.478,0,0,0,4.945,0Z" transform="translate(-0.03)"/>
</svg>
