<svg xmlns="http://www.w3.org/2000/svg" width="49.777" height="49.766" viewBox="0 0 49.777 49.766">
  <path id="instagram_1_" data-name="instagram (1)" d="M24.819,43.949A12.759,12.759,0,1,0,37.579,56.708,12.739,12.739,0,0,0,24.819,43.949Zm0,21.055a8.3,8.3,0,1,1,8.3-8.3A8.31,8.31,0,0,1,24.819,65ZM41.077,43.427A2.976,2.976,0,1,1,38.1,40.451,2.969,2.969,0,0,1,41.077,43.427Zm8.451,3.021c-.189-3.987-1.1-7.518-4.02-10.427S39.067,32.2,35.08,32c-4.109-.233-16.424-.233-20.533,0-3.976.189-7.507,1.1-10.427,4.009S.3,42.45.1,46.436C-.133,50.545-.133,62.86.1,66.969.289,70.956,1.2,74.487,4.12,77.4s6.441,3.82,10.427,4.02c4.109.233,16.424.233,20.533,0,3.987-.189,7.518-1.1,10.427-4.02s3.82-6.441,4.02-10.427C49.761,62.86,49.761,50.556,49.527,46.447Zm-5.308,24.93a8.4,8.4,0,0,1-4.731,4.731c-3.276,1.3-11.049,1-14.669,1s-11.4.289-14.669-1a8.4,8.4,0,0,1-4.731-4.731c-1.3-3.276-1-11.049-1-14.669s-.289-11.4,1-14.669a8.4,8.4,0,0,1,4.731-4.731c3.276-1.3,11.049-1,14.669-1s11.4-.289,14.669,1a8.4,8.4,0,0,1,4.731,4.731c1.3,3.276,1,11.049,1,14.669S45.519,68.113,44.219,71.378Z" transform="translate(0.075 -31.825)"/>
</svg>
