<svg xmlns="http://www.w3.org/2000/svg" width="31.014" height="35.444" viewBox="0 0 31.014 35.444">
  <path id="calendar-days-solid" d="M8.861,0a2.213,2.213,0,0,1,2.215,2.215V4.431h8.861V2.215a2.215,2.215,0,0,1,4.431,0V4.431h3.323a3.324,3.324,0,0,1,3.323,3.323v3.323H0V7.753A3.324,3.324,0,0,1,3.323,4.431H6.646V2.215A2.213,2.213,0,0,1,8.861,0ZM0,13.292H31.014v18.83a3.324,3.324,0,0,1-3.323,3.323H3.323A3.324,3.324,0,0,1,0,32.121ZM4.431,18.83v2.215a1.111,1.111,0,0,0,1.108,1.108H7.753a1.111,1.111,0,0,0,1.108-1.108V18.83a1.111,1.111,0,0,0-1.108-1.108H5.538A1.111,1.111,0,0,0,4.431,18.83Zm8.861,0v2.215A1.111,1.111,0,0,0,14.4,22.153h2.215a1.111,1.111,0,0,0,1.108-1.108V18.83a1.111,1.111,0,0,0-1.108-1.108H14.4A1.111,1.111,0,0,0,13.292,18.83Zm9.969-1.108a1.111,1.111,0,0,0-1.108,1.108v2.215a1.111,1.111,0,0,0,1.108,1.108h2.215a1.111,1.111,0,0,0,1.108-1.108V18.83a1.111,1.111,0,0,0-1.108-1.108ZM4.431,27.691v2.215a1.111,1.111,0,0,0,1.108,1.108H7.753a1.111,1.111,0,0,0,1.108-1.108V27.691a1.111,1.111,0,0,0-1.108-1.108H5.538A1.111,1.111,0,0,0,4.431,27.691ZM14.4,26.583a1.111,1.111,0,0,0-1.108,1.108v2.215A1.111,1.111,0,0,0,14.4,31.014h2.215a1.111,1.111,0,0,0,1.108-1.108V27.691a1.111,1.111,0,0,0-1.108-1.108Zm7.753,1.108v2.215a1.111,1.111,0,0,0,1.108,1.108h2.215a1.111,1.111,0,0,0,1.108-1.108V27.691a1.111,1.111,0,0,0-1.108-1.108H23.26A1.111,1.111,0,0,0,22.153,27.691Z"/>
</svg>
