<svg xmlns="http://www.w3.org/2000/svg" width="80.434" height="80.441" viewBox="0 0 80.434 80.441">
  <path id="cat-solid" d="M77.289,30.166h2.687A20.085,20.085,0,0,0,97.4,40.221a20.406,20.406,0,0,0,5.028-.628V75.414a5.028,5.028,0,0,1-10.055,0V53.292L71,70.386h8.8a5.028,5.028,0,0,1,0,10.055H57.179A15.087,15.087,0,0,1,42.1,65.359V30.244a5.037,5.037,0,0,0-4.4-5l-1.241-.157A5.027,5.027,0,1,1,37.7,15.114l1.241.157A15.085,15.085,0,0,1,52.152,30.244v13.4a30.143,30.143,0,0,1,25.138-13.48Zm25.138,4.163h0a15.087,15.087,0,0,1-16.277-4.163h0A14.287,14.287,0,0,1,84.6,28.092a15.067,15.067,0,0,1-2.278-7.981h0V1.681A1.68,1.68,0,0,1,83.982,0h.031a1.675,1.675,0,0,1,1.32.66V.676l2.011,2.671,4.273,5.7.754,1.006h10.055l.754-1.006,4.273-5.7L109.466.676V.66a1.675,1.675,0,0,1,1.32-.66h.031a1.68,1.68,0,0,1,1.665,1.681V20.11a15.059,15.059,0,0,1-10.055,14.219ZM94.886,20.11a2.514,2.514,0,1,0-2.514,2.514A2.514,2.514,0,0,0,94.886,20.11Zm7.541,2.514a2.514,2.514,0,1,0-2.514-2.514A2.514,2.514,0,0,0,102.427,22.624Z" transform="translate(-32.049)"/>
</svg>
