<svg xmlns="http://www.w3.org/2000/svg" width="44.44" height="44.44" viewBox="0 0 44.44 44.44">
  <path id="phone-solid_1_" data-name="phone-solid (1)" d="M14.312,2.115A3.461,3.461,0,0,0,10.2.1L2.56,2.184A3.482,3.482,0,0,0,0,5.534,38.886,38.886,0,0,0,38.884,44.418a3.482,3.482,0,0,0,3.35-2.56l2.083-7.638A3.461,3.461,0,0,0,42.3,30.106l-8.332-3.472a3.461,3.461,0,0,0-4.019,1.007L26.446,31.92A29.334,29.334,0,0,1,12.5,17.972l4.279-3.5a3.464,3.464,0,0,0,1.007-4.019L14.312,2.123Z" transform="translate(0 0.022)"/>
</svg>
