<svg xmlns="http://www.w3.org/2000/svg" width="59.925" height="58.279" viewBox="0 0 59.925 58.279">
  <g id="Sejr___Davidsens__2_-removebg-preview-_1_" transform="matrix(0.966, 0.259, -0.259, 0.966, -48.314, 104.218)">
    <path id="Path_10" data-name="Path 10" d="M84.219-120.922c-4.039,3.754-4.23,12.736-.38,16.871,6.035,6.463,13.306-4.847,8.934-13.829C90.777-121.967,86.833-123.345,84.219-120.922Z" transform="translate(-27.98)" fill="#110106"/>
    <path id="Path_11" data-name="Path 11" d="M44.686-108.574c-2.756,2.851-1.948,9.362,1.711,13.5,2.376,2.661,4.039,3.612,6.511,3.612,4.61,0,6.321-4.657,4.039-10.93-1.616-4.515-5.323-7.6-9.077-7.6A3.788,3.788,0,0,0,44.686-108.574Z" transform="translate(-8.026 -6.359)" fill="#110106"/>
    <path id="Path_12" data-name="Path 12" d="M121.333-99.851c-4.8,3.232-5.655,12.308-1.331,14.59,2.424,1.331,6.226-.808,7.984-4.42,1.093-2.281,1.331-6.843.475-8.554C127.036-101.039,124.042-101.7,121.333-99.851Z" transform="translate(-46.94 -11.138)" fill="#110106"/>
    <path id="Path_13" data-name="Path 13" d="M73.26-74.363c-6.035,1.426-10.55,6.416-12.451,13.734-2.043,7.889,1.093,15.4,6.843,16.348,3.327.523,5.037-.57,6.653-4.135,1.521-3.374,4.087-5.845,6.558-6.321,1.521-.285,1.806-.19,6.7,2.376,3.232,1.758,8.7-1,9.41-4.752.713-3.8-5.465-12.308-11.073-15.255A17.865,17.865,0,0,0,73.26-74.363Z" transform="translate(-17.021 -24.841)" fill="#110106"/>
    <path id="Path_14" data-name="Path 14" d="M30.862-69.215c-3.279,1.426-4.087,5.228-1.853,8.934,3.137,5.418,10.645,6.226,12.879,1.426,1.616-3.374-.428-7.746-4.562-9.837C34.521-70.07,33.1-70.213,30.862-69.215Z" transform="translate(0 -27.423)" fill="#110106"/>
  </g>
</svg>
