<svg xmlns="http://www.w3.org/2000/svg" width="28.205" height="24.682" viewBox="0 0 28.205 24.682">
  <path id="thumbs-up-solid" d="M17.265,32.012a2.647,2.647,0,0,1,2.077,3.113l-.127.628a13.133,13.133,0,0,1-1.587,4.143h7.933a2.644,2.644,0,0,1,1.217,4.991,2.643,2.643,0,0,1-1.157,4.655,2.648,2.648,0,0,1-1.443,3.884,2.767,2.767,0,0,1,.061.573,2.645,2.645,0,0,1-2.644,2.644H16.224a5.3,5.3,0,0,1-2.936-.887l-2.121-1.416a5.289,5.289,0,0,1-2.352-4.4V43.812A5.307,5.307,0,0,1,10.8,39.68l.408-.325a7.914,7.914,0,0,0,2.821-4.638l.127-.628A2.647,2.647,0,0,1,17.265,32.012Zm-15.5,8.765H5.289a1.761,1.761,0,0,1,1.763,1.763v12.34a1.761,1.761,0,0,1-1.763,1.763H1.763A1.761,1.761,0,0,1,0,54.879V42.539A1.761,1.761,0,0,1,1.763,40.776Z" transform="translate(0 -31.96)"/>
</svg>
